<svg xmlns="http://www.w3.org/2000/svg" xmlns:xlink="http://www.w3.org/1999/xlink" width="500" zoomAndPan="magnify"
    viewBox="0 0 375 374.999991" height="500" preserveAspectRatio="xMidYMid meet" version="1.0">
    <defs>
        <clipPath id="a12027caa7">
            <path
                d="M 68.671875 0.015625 L 306.363281 0.015625 L 306.363281 374.984375 L 68.671875 374.984375 Z M 68.671875 0.015625 "
                clip-rule="nonzero" />
        </clipPath>
    </defs>
    <g clip-path="url(#a12027caa7)">
        <path fill="#415f7d"
            d="M 135.085938 334.273438 C 134.148438 290.53125 204.746094 281.4375 221.800781 318.269531 C 249.320312 377.707031 136.539062 401.660156 135.085938 334.273438 Z M 147.992188 260.742188 C 147.664062 241.621094 151.933594 212.148438 174.214844 184.835938 C 193.429688 161.292969 229.546875 141.007812 223.445312 105.066406 C 216.132812 62.015625 156.824219 75.21875 158.660156 120.273438 C 159.117188 131.515625 84.132812 120.441406 72.859375 116.132812 C 61.582031 111.828125 74.492188 64.808594 94.792969 43.726562 C 171.308594 -35.738281 285.183594 1.085938 304.617188 90.46875 C 320.890625 165.3125 218.1875 195.964844 217.460938 263.117188 C 217.382812 270.496094 148.1875 272.160156 147.992188 260.742188 "
            fill-opacity="1" fill-rule="nonzero" />
    </g>
</svg>